<?xml version="1.0" standalone="no"?><!DOCTYPE svg PUBLIC "-//W3C//DTD SVG 1.1//EN" "http://www.w3.org/Graphics/SVG/1.1/DTD/svg11.dtd"><svg t="1761649929051" class="icon" viewBox="0 0 9301 1024" version="1.1" xmlns="http://www.w3.org/2000/svg" p-id="843" xmlns:xlink="http://www.w3.org/1999/xlink" width="1816.6015625" height="200"><path d="M577.828571 156.038095h-207.238095l-19.504762 53.638095h207.238096l19.504761-53.638095z m555.885715 53.638095l19.504762-53.638095h-204.8l-19.504762 53.638095h204.8zM546.133333 243.809524h-207.238095l-19.504762 53.638095h207.238095l19.504762-53.638095z m475.428572 265.752381H238.933333L219.428571 563.2h782.628572l19.504762-53.638095z m-138.971429-175.542857l-19.504762 53.638095h204.8l19.504762-53.638095h-204.8zM1121.52381 243.809524h-204.8l-19.504762 53.638095h204.8L1121.52381 243.809524z m-65.828572 177.980952h-204.8v2.438095H480.304762v-2.438095h-207.238095l-19.504762 53.638095h782.628571l19.504762-53.638095zM512 334.019048h-207.238095l-19.504762 53.638095h207.238095l19.504762-53.638095zM697.295238 828.952381H902.095238l19.504762-53.638095h-204.8l-19.504762 53.638095z m270.628572-177.980952l19.504761-53.638096h-202.361904l-19.504762 53.638096h202.361905zM414.47619 597.333333H207.238095l-19.504762 53.638096h207.238096l19.504761-53.638096z m316.952381 141.409524h204.8l19.504762-53.638095h-204.8l-19.504762 53.638095zM611.961905 65.828571h-204.8L385.219048 121.904762h204.8l21.942857-56.076191zM56.07619 1002.057143h204.8l19.504762-51.2H75.580952l-19.504762 51.2z m575.390477 0h204.8l19.504762-51.2h-204.8l-19.504762 51.2zM1187.352381 65.828571h-204.8L960.609524 121.904762h204.8l21.942857-56.076191zM685.104762 863.085714l-19.504762 53.638096h204.8l19.504762-53.638096h-204.8z m-370.590476 0H107.27619l-19.504761 53.638096H292.571429l21.942857-53.638096z m65.828571-177.980952H173.104762l-19.504762 53.638095h207.238095l19.504762-53.638095z m-31.695238 90.209524H141.409524L119.466667 828.952381h207.238095l21.942857-53.638095z m1006.933333-387.657143h214.552381l-7.314285-46.32381-2.438096-7.314285h-219.428571l14.628571 53.638095z m-21.942857-90.209524h219.428572l-12.190477-53.638095h-221.866666l14.628571 53.638095z m-53.638095 704.609524h209.67619l19.504762-51.2h-209.67619l-19.504762 51.2zM2199.161905 65.828571h-219.428572L1923.657143 121.904762h219.428571l56.076191-56.076191zM1533.561905 209.67619l-12.190476-53.638095h-224.304762l12.190476 53.638095h224.304762z m-29.257143-143.847619h-229.180952l14.628571 56.076191h226.742857l-12.190476-56.076191z m385.219048 90.209524l-53.638096 53.638095h219.428572l53.638095-53.638095h-219.428571zM1587.2 475.428571l-9.752381-53.638095H1365.333333l12.190477 53.638095h414.47619l53.638095-53.638095h-209.67619l-48.761905 53.638095z m163.352381-177.980952h216.990476l53.638095-53.638095h-219.428571l-51.2 53.638095z m-39.009524 39.009524l-43.885714 51.2h212.114286l53.638095-53.638095h-216.990476l-4.876191 2.438095zM1314.133333 916.72381h209.676191l19.504762-53.638096h-209.676191l-19.504762 53.638096z m34.133334-87.771429h209.67619l19.504762-53.638095h-209.67619l-19.504762 53.638095z m51.2-265.752381h304.761904l53.638096-53.638095H1387.27619l12.190477 53.638095z m-19.504762 175.542857h209.67619l19.504762-53.638095h-209.67619l-19.504762 53.638095z m39.009524-97.523809l-4.876191 9.752381h209.676191l4.87619-12.190477 41.447619-41.447619H1409.219048l9.752381 43.885715zM1967.542857 680.228571c26.819048 0 53.638095 7.314286 80.457143 21.942858 26.819048 14.628571 46.32381 34.133333 60.952381 60.952381 14.628571 26.819048 21.942857 53.638095 21.942857 82.895238s-7.314286 56.07619-21.942857 82.895238c-14.628571 26.819048-34.133333 46.32381-60.952381 60.952381s-53.638095 21.942857-82.895238 21.942857c-29.257143 0-56.07619-7.314286-82.895238-21.942857-26.819048-14.628571-46.32381-34.133333-60.952381-60.952381-9.752381-26.819048-17.066667-56.07619-17.066667-82.895238 0-29.257143 7.314286-56.07619 21.942857-82.895238 14.628571-26.819048 36.571429-46.32381 60.952381-60.952381 26.819048-14.628571 53.638095-21.942857 80.457143-21.942858z m0 26.819048c-24.380952 0-46.32381 4.87619-68.266667 17.066667s-39.009524 29.257143-51.2 51.2c-12.190476 21.942857-19.504762 43.885714-19.504761 68.266666s4.87619 46.32381 17.066666 68.266667c12.190476 21.942857 29.257143 39.009524 51.2 51.2s43.885714 17.066667 68.266667 17.066667 46.32381-4.87619 68.266667-17.066667 39.009524-29.257143 51.2-51.2c12.190476-21.942857 17.066667-43.885714 17.066666-68.266667s-7.314286-46.32381-19.504762-68.266666c-12.190476-21.942857-29.257143-39.009524-51.2-51.2-17.066667-9.752381-39.009524-17.066667-63.390476-17.066667z m-70.704762 229.180952v-177.980952h60.952381c21.942857 0 36.571429 2.438095 46.32381 4.876191s17.066667 9.752381 21.942857 17.066666c4.87619 7.314286 7.314286 17.066667 7.314286 26.819048 0 12.190476-4.87619 24.380952-14.628572 34.133333s-21.942857 14.628571-36.571428 17.066667c7.314286 2.438095 12.190476 4.87619 14.628571 9.752381 7.314286 7.314286 17.066667 19.504762 26.819048 34.133333l21.942857 34.133333h-34.133334l-14.628571-26.819047c-12.190476-21.942857-21.942857-36.571429-29.257143-41.447619-4.87619-4.87619-12.190476-7.314286-21.942857-7.314286h-17.066667v75.580952h-31.695238z m26.819048-99.961904h34.133333c17.066667 0 26.819048-2.438095 34.133334-7.314286 4.87619-4.87619 9.752381-12.190476 9.75238-19.504762 0-4.87619-2.438095-9.752381-4.87619-14.628571-2.438095-4.87619-7.314286-7.314286-12.190476-9.752381-4.87619-2.438095-14.628571-2.438095-29.257143-2.438096h-31.695238v53.638096z" p-id="844" fill="#ffffff"></path><path d="M2411.27619 199.92381V158.47619h180.419048v41.44762c-19.504762 36.571429-41.447619 73.142857-68.266667 104.838095v26.819047l26.819048-21.942857c12.190476 14.628571 29.257143 36.571429 46.32381 60.952381l-31.695239 24.380953c-14.628571-24.380952-29.257143-43.885714-41.447619-60.952381v260.87619h-41.447619v-243.809524c-19.504762 21.942857-41.447619 41.447619-63.390476 60.952381-4.87619-26.819048-9.752381-43.885714-14.628571-48.761905 63.390476-48.761905 109.714286-104.838095 138.971428-168.228571h-131.657143z m48.761905-136.533334l39.009524-19.504762c9.752381 17.066667 26.819048 43.885714 46.32381 78.019048l-43.885715 21.942857c-14.628571-34.133333-26.819048-58.514286-41.447619-80.457143z m143.847619 12.190476h338.895238v36.571429h-338.895238V75.580952z m2.438096 256h329.142857v265.752381h-41.447619v-29.257143h-248.685715v29.257143h-41.447619V331.580952z m26.819047-177.980952h275.504762v148.72381h-41.447619v-19.504762h-192.609524v19.504762H2633.142857V153.6z m12.190476 277.942857h102.4V365.714286h-102.4v65.828571z m0 102.4h102.4v-65.828571h-102.4v65.828571z m221.866667-346.209524h-192.609524v63.390477h192.609524V187.733333z m26.819048 180.419048h-104.838096v65.828571h104.838096v-65.828571z m-104.838096 165.790476h104.838096v-65.828571h-104.838096v65.828571zM3023.238095 207.238095l41.447619 9.752381c-14.628571 58.514286-29.257143 112.152381-43.885714 158.476191-14.628571-4.87619-29.257143-9.752381-41.447619-14.628572 17.066667-48.761905 31.695238-99.961905 43.885714-153.6z m65.828572-148.723809h43.885714v229.180952c0 141.409524-36.571429 243.809524-109.714286 309.638095-9.752381-9.752381-19.504762-21.942857-34.133333-36.571428 65.828571-58.514286 99.961905-156.038095 97.523809-290.133334V58.514286z m63.390476 165.790476l39.009524-14.628572c19.504762 48.761905 39.009524 92.647619 53.638095 131.657143l-41.447619 17.066667c-14.628571-41.447619-31.695238-87.771429-51.2-134.095238z m117.028571-156.038095h43.885715V585.142857h-43.885715V68.266667z m60.952381 158.47619l39.009524-17.066667c19.504762 46.32381 39.009524 90.209524 56.076191 134.095239l-41.44762 17.066666c-14.628571-43.885714-34.133333-90.209524-53.638095-134.095238z m117.028572-170.666667h43.885714v538.819048h-43.885714V56.07619zM3559.619048 216.990476c65.828571-46.32381 119.466667-104.838095 158.47619-173.104762l39.009524 19.504762c-17.066667 26.819048-34.133333 51.2-53.638095 75.580953v219.428571h-43.885715v-170.666667c-24.380952 24.380952-51.2 48.761905-80.457142 68.266667l-19.504762-39.009524z m4.87619 204.8h248.685714v-75.580952h43.885715v75.580952h248.685714V463.238095h-248.685714v143.847619h-43.885715V463.238095h-248.685714v-41.447619z m158.476191-177.980952c48.761905-12.190476 92.647619-26.819048 136.533333-46.32381V56.07619h43.885714v121.904762c56.07619-26.819048 104.838095-58.514286 146.285714-95.085714l29.257143 34.133333c-51.2 39.009524-109.714286 75.580952-175.542857 107.276191V268.190476c0 24.380952 14.628571 36.571429 46.32381 36.571429h58.514285c29.257143 0 43.885714-12.190476 48.761905-36.571429 4.87619-21.942857 7.314286-43.885714 7.314286-65.828571 19.504762 7.314286 34.133333 14.628571 43.885714 17.066666-2.438095 24.380952-7.314286 46.32381-9.752381 63.390477-7.314286 41.447619-34.133333 60.952381-80.457143 60.952381h-85.333333c-48.761905 0-75.580952-24.380952-75.580952-70.704762V241.371429c-34.133333 14.628571-70.704762 29.257143-109.714286 43.885714-7.314286-14.628571-14.628571-26.819048-24.380952-41.447619zM4149.638095 134.095238h158.476191c4.87619-29.257143 9.752381-58.514286 12.190476-87.771428l48.761905 7.314285c-2.438095 29.257143-7.314286 56.07619-12.190477 80.457143H4681.142857v43.885714h-336.457143c-4.87619 29.257143-12.190476 56.07619-19.504762 82.895238h295.009524v41.44762c-29.257143 78.019048-68.266667 136.533333-121.904762 182.857142 51.2 34.133333 114.590476 56.07619 190.171429 68.266667l-36.571429 51.2c-75.580952-21.942857-141.409524-53.638095-192.609524-90.209524-56.07619 36.571429-124.342857 68.266667-204.8 95.085715l-29.257142-43.885715c78.019048-21.942857 143.847619-48.761905 197.485714-80.457143-51.2-46.32381-87.771429-107.27619-109.714286-180.419047-36.571429 121.904762-90.209524 214.552381-156.038095 277.942857-9.752381-14.628571-19.504762-26.819048-29.257143-39.009524 80.457143-82.895238 136.533333-204.8 170.666667-363.27619h-148.72381V134.095238z m419.352381 168.228572h-212.114286c21.942857 63.390476 56.07619 114.590476 102.4 153.6 56.07619-46.32381 92.647619-97.52381 109.714286-153.6zM4715.27619 285.257143h248.685715V48.761905h46.323809v236.495238h253.561905v41.447619h-185.295238v180.419048c0 14.628571 2.438095 24.380952 4.87619 29.257142 4.87619 7.314286 17.066667 12.190476 34.133334 12.190477h56.07619c26.819048 0 41.447619-9.752381 43.885715-29.257143 2.438095-19.504762 4.87619-46.32381 7.314285-80.457143 14.628571 4.87619 29.257143 12.190476 46.32381 17.066667-2.438095 39.009524-7.314286 65.828571-9.752381 82.895238-2.438095 19.504762-12.190476 31.695238-24.380953 39.009523-12.190476 7.314286-31.695238 9.752381-60.952381 9.752381h-65.828571c-29.257143 0-48.761905-7.314286-60.952381-19.504762-9.752381-9.752381-14.628571-29.257143-14.628571-53.638095v-187.733333H4924.952381c-2.438095 78.019048-17.066667 136.533333-46.32381 175.542857-31.695238 43.885714-80.457143 75.580952-146.285714 99.961905-7.314286-12.190476-17.066667-24.380952-29.257143-39.009524 65.828571-21.942857 112.152381-53.638095 136.533334-90.209524 24.380952-31.695238 36.571429-80.457143 39.009523-146.285714h-163.352381v-41.447619z m39.009524-165.790476l34.133334-26.819048c39.009524 41.447619 73.142857 82.895238 109.714285 124.342857l-41.447619 31.695238c-34.133333-46.32381-68.266667-90.209524-102.4-129.219047z m314.514286 102.4c43.885714-41.447619 80.457143-85.333333 114.590476-129.219048l41.447619 29.257143c-36.571429 43.885714-78.019048 87.771429-121.904762 129.219048l-34.133333-29.257143zM5288.228571 404.72381h263.314286v-31.695239l107.276191-60.952381h-263.314286v-41.447619h329.142857V316.952381l-126.780952 73.142857v12.190476h241.371428v41.447619h-241.371428v85.333334c0 43.885714-21.942857 65.828571-65.828572 65.828571h-87.771428c0-12.190476-2.438095-29.257143-7.314286-48.761905 29.257143 2.438095 58.514286 4.87619 85.333333 4.876191 19.504762 0 29.257143-9.752381 29.257143-31.695238v-75.580953h-263.314286v-39.009523z m19.504762-229.180953h512v114.590476h-43.885714v-73.142857h-424.228571v73.142857h-43.885715V175.542857z m43.885715-92.647619l34.133333-24.380952c21.942857 24.380952 46.32381 51.2 68.266667 80.457143l-39.009524 26.819047c-21.942857-29.257143-41.447619-58.514286-63.390476-82.895238z m151.161904-17.066667l36.571429-21.942857c21.942857 29.257143 43.885714 60.952381 63.390476 92.647619l-41.447619 21.942857c-14.628571-26.819048-34.133333-58.514286-58.514286-92.647619z m160.914286 75.580953c24.380952-26.819048 48.761905-56.07619 70.704762-87.771429l41.447619 29.257143c-24.380952 26.819048-51.2 56.07619-78.019048 87.771429l-34.133333-29.257143zM5858.742857 316.952381c58.514286-78.019048 102.4-168.228571 131.657143-265.752381l46.32381 14.628571c-17.066667 48.761905-36.571429 95.085714-58.514286 136.533334v397.409524h-43.885714v-316.952381c-19.504762 31.695238-39.009524 58.514286-58.514286 85.333333-4.87619-17.066667-9.752381-34.133333-17.066667-51.2z m524.190476-202.361905c-14.628571 134.095238-58.514286 243.809524-131.657143 331.580953 46.32381 43.885714 102.4 78.019048 170.666667 107.27619-14.628571 17.066667-26.819048 31.695238-34.133333 43.885714-65.828571-31.695238-121.904762-70.704762-168.228572-117.028571-51.2 51.2-114.590476 92.647619-187.733333 124.342857-4.87619-9.752381-14.628571-24.380952-29.257143-41.447619 73.142857-31.695238 134.095238-70.704762 182.857143-119.466667-73.142857-85.333333-114.590476-195.047619-126.780952-324.266666l46.323809-7.314286c9.752381 119.466667 48.761905 219.428571 112.152381 297.447619 68.266667-80.457143 104.838095-182.857143 117.028572-304.761905l48.761904 9.752381z m-226.742857-43.885714l41.447619-17.066667c21.942857 36.571429 41.447619 78.019048 60.952381 124.342857l-43.885714 21.942858c-19.504762-46.32381-39.009524-90.209524-58.514286-129.219048zM6453.638095 285.257143h226.742857c4.87619-14.628571 9.752381-29.257143 12.190477-48.761905l41.447619 4.876191c-2.438095 14.628571-4.87619 29.257143-9.752381 43.885714h121.904762c-14.628571-9.752381-31.695238-21.942857-48.761905-31.695238l21.942857-24.380953c24.380952 14.628571 46.32381 29.257143 65.828571 43.885715l-12.190476 14.628571h104.838095v36.571429h-216.990476c43.885714 41.447619 119.466667 63.390476 231.619048 60.952381-9.752381 14.628571-17.066667 29.257143-21.942857 43.885714-9.752381 0-19.504762-2.438095-29.257143-2.438095v170.666666h-39.009524v-31.695238h-119.466667v29.257143h-39.009523v-173.104762h177.980952c-107.27619-14.628571-175.542857-46.32381-204.8-97.523809h-9.752381c-21.942857 43.885714-90.209524 78.019048-204.8 97.523809h180.419048v173.104762h-39.009524v-29.257143h-119.466667v31.695238H6485.333333v-170.666666c-9.752381 2.438095-19.504762 4.87619-31.695238 4.87619-4.87619-12.190476-12.190476-24.380952-21.942857-39.009524 124.342857-17.066667 199.92381-39.009524 226.742857-68.266666h-204.8v-39.009524z m31.695238-204.8h197.485715V243.809524h-39.009524v-17.066667h-119.466667v21.942857H6485.333333V80.457143z m158.476191 34.133333h-119.466667v75.580953h119.466667V114.590476z m0 341.333334h-119.466667v73.142857h119.466667v-73.142857z m99.961905-375.466667h199.923809v165.790476h-39.009524v-19.504762h-119.466666v17.066667h-39.009524V80.457143z m158.47619 34.133333h-119.466667v75.580953h119.466667V114.590476z m0 341.333334h-119.466667v73.142857h119.466667v-73.142857zM7170.438095 599.771429h-43.885714V309.638095c-26.819048 31.695238-56.07619 60.952381-90.209524 90.209524-7.314286-12.190476-17.066667-26.819048-26.819047-41.447619 73.142857-60.952381 129.219048-126.780952 170.666666-202.361905h-153.6V117.028571h175.542857c9.752381-24.380952 19.504762-46.32381 26.819048-73.142857l46.323809 9.752381c-7.314286 21.942857-14.628571 41.447619-24.380952 60.952381h316.952381v41.447619h-338.895238c-12.190476 21.942857-24.380952 43.885714-39.009524 65.828572h307.2v299.885714c0 46.32381-21.942857 70.704762-68.266667 70.704762H7338.666667c-2.438095-12.190476-4.87619-29.257143-7.314286-46.32381 34.133333 2.438095 63.390476 4.87619 82.895238 4.876191 26.819048 0 39.009524-12.190476 39.009524-39.009524v-39.009524h-282.819048v126.780953z m282.819048-336.457143h-282.819048v65.828571h282.819048v-65.828571z m-282.819048 170.666666h282.819048V365.714286h-282.819048v68.266666zM7784.838095 382.780952c9.752381 70.704762-7.314286 112.152381-53.638095 119.466667-17.066667 2.438095-36.571429 4.87619-56.07619 0-2.438095-14.628571-7.314286-31.695238-12.190477-46.323809 19.504762 4.87619 36.571429 7.314286 51.2 4.87619 24.380952-4.87619 34.133333-31.695238 26.819048-80.457143-4.87619-29.257143-21.942857-63.390476-51.2-102.4 14.628571-41.447619 31.695238-95.085714 53.638095-163.352381h-82.895238v490.057143h-41.447619V75.580952h170.666667v39.009524c-19.504762 53.638095-36.571429 104.838095-53.638096 156.038095 26.819048 43.885714 43.885714 80.457143 48.761905 112.152381z m36.571429-304.761904h265.752381v280.380952H8045.714286v-14.628571h-95.085715c12.190476 34.133333 26.819048 63.390476 48.761905 90.209523 34.133333-21.942857 68.266667-48.761905 107.276191-80.457142l29.257143 36.571428c-41.447619 29.257143-78.019048 53.638095-109.714286 73.142857 31.695238 34.133333 73.142857 58.514286 124.342857 80.457143-14.628571 14.628571-26.819048 26.819048-36.571429 41.447619-104.838095-53.638095-170.666667-136.533333-202.361904-241.371428h-48.761905v190.171428c24.380952-12.190476 58.514286-26.819048 97.523809-48.761905 0 17.066667 2.438095 31.695238 2.438096 43.885715-34.133333 17.066667-65.828571 34.133333-97.52381 51.2-7.314286 4.87619-17.066667 12.190476-29.257143 24.380952l-31.695238-41.447619c12.190476-9.752381 17.066667-21.942857 17.066667-36.571429V78.019048z m224.304762 39.009523h-182.857143v75.580953h182.857143V117.028571z m0 187.733334V229.180952h-182.857143v75.580953h182.857143zM8162.742857 314.514286c82.895238-68.266667 146.285714-148.72381 187.733333-241.371429l43.885715 19.504762c-51.2 104.838095-117.028571 192.609524-195.047619 258.438095-9.752381-14.628571-21.942857-24.380952-36.571429-36.571428z m365.714286 68.266666c53.638095 70.704762 99.961905 134.095238 136.533333 190.171429l-43.885714 29.257143c-9.752381-17.066667-21.942857-34.133333-34.133333-53.638095-124.342857 4.87619-224.304762 12.190476-302.32381 19.504761-14.628571 2.438095-31.695238 4.87619-51.2 9.752381l-24.380952-48.761904c17.066667-7.314286 31.695238-17.066667 46.323809-31.695238 43.885714-51.2 92.647619-124.342857 143.847619-224.304762l48.761905 21.942857c-46.32381 80.457143-95.085714 153.6-148.72381 224.304762 78.019048-2.438095 165.790476-4.87619 263.314286-9.752381-21.942857-31.695238-43.885714-65.828571-70.704762-102.4l36.571429-24.380953z m-48.761905-302.323809l41.447619-17.066667c36.571429 97.52381 104.838095 175.542857 202.361905 234.057143-9.752381 9.752381-21.942857 24.380952-34.133333 43.885714-102.4-70.704762-173.104762-158.47619-209.676191-260.87619zM8747.885714 187.733333h429.104762v41.447619h-429.104762V187.733333z m31.695238-68.266666V78.019048H9264.761905v438.857142c0 53.638095-24.380952 80.457143-73.142857 80.457143h-109.714286c0-12.190476-4.87619-29.257143-9.752381-48.761904 46.32381 2.438095 80.457143 4.87619 107.27619 4.87619s39.009524-14.628571 39.009524-43.885714v-390.095238h-438.857143z m24.380953 175.542857h295.009524v199.923809h-251.12381V536.380952h-43.885714v-241.371428z m251.123809 158.47619v-117.028571h-207.238095v117.028571h207.238095z" p-id="845" fill="#ffffff"></path><path d="M2530.742857 797.257143h-80.457143v68.266667h75.580953v21.942857h-75.580953v90.209523h-26.819047v-204.8h107.27619v24.380953zM2725.790476 894.780952c0 58.514286-26.819048 85.333333-80.457143 85.333334-51.2 0-78.019048-26.819048-78.019047-82.895238v-124.342858h26.819047v121.904762c0 41.447619 17.066667 60.952381 53.638096 60.952381 34.133333 0 51.2-19.504762 51.2-58.514285v-124.342858h26.819047v121.904762zM2915.961905 780.190476l-121.904762 173.104762h117.028571v24.380952H2755.047619v-9.75238l119.466667-170.666667h-109.714286v-24.380953h151.161905v7.314286zM3108.571429 977.67619h-26.819048v-92.647619H2974.47619v92.647619h-26.819047v-204.8h26.819047v87.771429h107.276191v-87.771429h26.819048v204.8zM3150.019048 877.714286c0-31.695238 9.752381-58.514286 26.819047-78.019048 19.504762-19.504762 43.885714-29.257143 75.580953-29.257143 29.257143 0 53.638095 9.752381 70.704762 29.257143 17.066667 19.504762 26.819048 43.885714 26.819047 73.142857 0 34.133333-9.752381 58.514286-26.819047 78.019048-17.066667 19.504762-41.447619 29.257143-73.142858 29.257143-29.257143 0-53.638095-9.752381-70.704762-29.257143-19.504762-17.066667-29.257143-43.885714-29.257142-73.142857z m26.819047-2.438096c0 24.380952 7.314286 43.885714 19.504762 58.514286s29.257143 21.942857 51.2 21.942857c21.942857 0 39.009524-7.314286 53.638095-21.942857 12.190476-14.628571 19.504762-34.133333 19.504762-60.952381s-7.314286-46.32381-19.504762-60.952381-29.257143-21.942857-51.2-21.942857c-21.942857 0-39.009524 7.314286-51.2 21.942857-14.628571 19.504762-21.942857 39.009524-21.942857 63.390476zM3544.990476 894.780952c0 58.514286-26.819048 85.333333-80.457143 85.333334-51.2 0-78.019048-26.819048-78.019047-82.895238v-124.342858h26.819047v121.904762c0 41.447619 17.066667 60.952381 53.638096 60.952381 34.133333 0 51.2-19.504762 51.2-58.514285v-124.342858h26.819047v121.904762zM3837.561905 977.67619h-26.819048v-92.647619H3705.904762v92.647619h-26.819048v-204.8h26.819048v87.771429h107.27619v-87.771429h26.819048v204.8zM4030.171429 772.87619l-68.266667 129.219048v75.580952h-26.819048v-73.142857l-68.266666-129.219047h31.695238l46.323809 90.209524s2.438095 4.87619 4.876191 12.190476c0-4.87619 2.438095-7.314286 4.87619-12.190476l46.32381-90.209524h29.257143zM4039.92381 877.714286c0-31.695238 9.752381-58.514286 26.819047-78.019048 19.504762-19.504762 43.885714-29.257143 75.580953-29.257143 29.257143 0 53.638095 9.752381 70.704761 29.257143 17.066667 19.504762 26.819048 43.885714 26.819048 73.142857 0 34.133333-9.752381 58.514286-26.819048 78.019048-17.066667 19.504762-41.447619 29.257143-73.142857 29.257143-29.257143 0-53.638095-9.752381-70.704762-29.257143-19.504762-17.066667-29.257143-43.885714-29.257142-73.142857z m29.257142-2.438096c0 24.380952 7.314286 43.885714 19.504762 58.514286s29.257143 21.942857 51.2 21.942857c21.942857 0 39.009524-7.314286 53.638096-21.942857 12.190476-14.628571 19.504762-34.133333 19.504761-60.952381s-7.314286-46.32381-19.504761-60.952381-29.257143-21.942857-51.2-21.942857c-21.942857 0-39.009524 7.314286-51.2 21.942857-17.066667 19.504762-21.942857 39.009524-21.942858 63.390476zM4305.67619 899.657143V975.238095h-26.819047v-204.8h58.514286c21.942857 0 39.009524 4.87619 53.638095 17.066667 12.190476 9.752381 19.504762 26.819048 19.504762 46.323809 0 19.504762-7.314286 36.571429-21.942857 48.761905s-31.695238 17.066667-53.638096 17.066667h-29.257143z m0-102.4V877.714286h24.380953c17.066667 0 29.257143-2.438095 36.571428-9.752381 9.752381-7.314286 12.190476-17.066667 12.190477-31.695238 0-26.819048-17.066667-39.009524-48.761905-39.009524h-24.380953zM4576.304762 797.257143h-60.952381v180.419047h-26.819048v-180.419047h-60.952381v-24.380953h148.72381v24.380953zM4720.152381 977.67619H4608v-204.8h107.27619v24.380953h-80.457142v65.828571h75.580952v24.380953h-75.580952v68.266666h85.333333v21.942857zM4749.409524 938.666667c7.314286 4.87619 14.628571 9.752381 26.819047 14.628571 9.752381 2.438095 21.942857 4.87619 31.695239 4.876191 29.257143 0 43.885714-9.752381 43.885714-31.695239 0-4.87619-2.438095-9.752381-4.876191-14.628571-2.438095-4.87619-7.314286-9.752381-12.190476-12.190476-4.87619-2.438095-14.628571-9.752381-31.695238-17.066667-21.942857-9.752381-34.133333-19.504762-41.447619-29.257143s-9.752381-19.504762-9.752381-29.257143c0-17.066667 7.314286-29.257143 21.942857-41.447619 14.628571-9.752381 31.695238-14.628571 53.638095-14.628571 21.942857 0 36.571429 2.438095 46.32381 7.314286V804.571429c-12.190476-7.314286-29.257143-12.190476-48.761905-12.190477-12.190476 0-24.380952 2.438095-31.695238 7.314286-7.314286 4.87619-12.190476 12.190476-12.190476 21.942857 0 7.314286 2.438095 14.628571 7.314286 19.504762s17.066667 12.190476 36.571428 21.942857 34.133333 19.504762 43.885714 29.257143c7.314286 9.752381 12.190476 19.504762 12.190477 31.695238 0 17.066667-7.314286 31.695238-19.504762 41.447619-12.190476 9.752381-31.695238 14.628571-56.076191 14.628572-7.314286 0-17.066667 0-29.257143-2.438096s-19.504762-4.87619-24.380952-7.314285v-31.695238zM5046.857143 797.257143h-60.952381v180.419047h-26.819048v-180.419047h-60.952381v-24.380953h148.72381v24.380953zM5146.819048 877.714286c0-31.695238 9.752381-58.514286 26.819047-78.019048 19.504762-19.504762 43.885714-29.257143 75.580953-29.257143 29.257143 0 53.638095 9.752381 70.704762 29.257143 17.066667 19.504762 26.819048 43.885714 26.819047 73.142857 0 34.133333-9.752381 58.514286-26.819047 78.019048-17.066667 19.504762-41.447619 29.257143-73.142858 29.257143-29.257143 0-53.638095-9.752381-70.704762-29.257143-19.504762-17.066667-29.257143-43.885714-29.257142-73.142857z m29.257142-2.438096c0 24.380952 7.314286 43.885714 19.504762 58.514286s29.257143 21.942857 51.2 21.942857c21.942857 0 39.009524-7.314286 53.638096-21.942857s19.504762-34.133333 19.504762-60.952381-7.314286-46.32381-19.504762-60.952381c-12.190476-14.628571-29.257143-21.942857-51.2-21.942857-21.942857 0-39.009524 7.314286-51.2 21.942857-14.628571 19.504762-21.942857 39.009524-21.942858 63.390476zM5415.009524 899.657143V975.238095H5388.190476v-204.8h58.514286c21.942857 0 41.447619 4.87619 53.638095 17.066667 12.190476 9.752381 19.504762 26.819048 19.504762 46.323809 0 19.504762-7.314286 36.571429-21.942857 48.761905s-31.695238 17.066667-56.076191 17.066667h-26.819047z m0-102.4V877.714286h24.380952c17.066667 0 29.257143-2.438095 36.571429-9.752381 9.752381-7.314286 12.190476-17.066667 12.190476-31.695238 0-26.819048-17.066667-39.009524-48.761905-39.009524h-24.380952zM5683.2 797.257143h-60.952381v180.419047h-26.819048v-180.419047H5534.47619v-24.380953h148.72381v24.380953zM5741.714286 772.87619v204.8h-26.819048v-204.8h26.819048zM5941.638095 967.92381c-14.628571 7.314286-34.133333 12.190476-58.514285 12.190476-29.257143 0-53.638095-9.752381-73.142858-26.819048-17.066667-19.504762-26.819048-43.885714-26.819047-73.142857 0-31.695238 9.752381-58.514286 29.257143-78.019048 19.504762-19.504762 46.32381-29.257143 78.019047-29.257143 19.504762 0 36.571429 2.438095 48.761905 7.314286v24.380953c-14.628571-7.314286-31.695238-12.190476-48.761905-12.190477-24.380952 0-41.447619 7.314286-56.07619 21.942858-14.628571 14.628571-21.942857 36.571429-21.942857 60.95238s7.314286 43.885714 19.504762 58.514286 31.695238 21.942857 53.638095 21.942857c21.942857 0 39.009524-4.87619 53.638095-14.628571v26.819048zM6146.438095 977.67619h-29.257143l-21.942857-56.07619h-87.771428l-19.504762 56.07619h-29.257143l80.457143-204.8h29.257143l78.019047 204.8z m-58.514285-80.457142l-31.695239-85.333334c0-2.438095-2.438095-7.314286-2.438095-14.628571 0 7.314286-2.438095 9.752381-2.438095 14.628571l-31.695238 85.333334h68.266667zM6204.952381 772.87619v204.8h-26.819048v-204.8h26.819048zM6368.304762 772.87619v204.8h-26.819048v-204.8h26.819048zM6595.047619 977.67619h-31.695238l-104.838095-158.47619c-2.438095-4.87619-4.87619-9.752381-7.314286-12.190476V980.114286h-26.819048v-204.8h34.133334l102.4 156.038095c4.87619 7.314286 7.314286 12.190476 9.752381 14.628571 0-4.87619-2.438095-14.628571-2.438096-29.257142v-138.971429h26.819048v199.923809zM6638.933333 938.666667c7.314286 4.87619 14.628571 9.752381 26.819048 14.628571 9.752381 2.438095 21.942857 4.87619 31.695238 4.876191 29.257143 0 43.885714-9.752381 43.885714-31.695239 0-4.87619-2.438095-9.752381-4.87619-14.628571s-7.314286-9.752381-12.190476-12.190476-14.628571-9.752381-31.695238-17.066667c-21.942857-9.752381-34.133333-19.504762-41.447619-29.257143-7.314286-9.752381-9.752381-19.504762-9.752381-29.257143 0-17.066667 7.314286-29.257143 21.942857-41.447619 14.628571-9.752381 31.695238-14.628571 53.638095-14.628571 21.942857 0 36.571429 2.438095 46.323809 7.314286V804.571429c-12.190476-7.314286-29.257143-12.190476-48.761904-12.190477-12.190476 0-24.380952 2.438095-31.695238 7.314286-7.314286 4.87619-12.190476 12.190476-12.190477 21.942857 0 7.314286 2.438095 14.628571 7.314286 19.504762 4.87619 4.87619 17.066667 12.190476 36.571429 21.942857s34.133333 19.504762 43.885714 29.257143c7.314286 9.752381 12.190476 19.504762 12.190476 31.695238 0 17.066667-7.314286 31.695238-19.504762 41.447619-12.190476 9.752381-31.695238 14.628571-56.07619 14.628572-7.314286 0-17.066667 0-29.257143-2.438096s-19.504762-4.87619-24.380952-7.314285v-31.695238zM6933.942857 797.257143H6875.428571v180.419047h-26.819047v-180.419047h-60.952381v-24.380953h148.723809v24.380953zM7119.238095 977.67619h-31.695238l-34.133333-56.07619c-7.314286-12.190476-12.190476-19.504762-19.504762-21.942857-4.87619-4.87619-12.190476-7.314286-19.504762-7.314286h-19.504762v85.333333h-26.819048v-204.8h63.390477c19.504762 0 36.571429 4.87619 48.761904 14.628572 12.190476 9.752381 17.066667 21.942857 17.066667 39.009524 0 29.257143-14.628571 46.32381-46.323809 56.07619 4.87619 2.438095 9.752381 4.87619 14.628571 9.752381 4.87619 4.87619 9.752381 12.190476 17.066667 21.942857l36.571428 63.390476z m-124.342857-180.419047v70.704762h31.695238c12.190476 0 21.942857-2.438095 29.257143-9.752381s12.190476-17.066667 12.190476-26.819048c0-9.752381-2.438095-19.504762-9.752381-24.380952-7.314286-4.87619-17.066667-9.752381-31.695238-9.752381h-31.695238zM7304.533333 894.780952c0 58.514286-26.819048 85.333333-80.457143 85.333334-51.2 0-78.019048-26.819048-78.019047-82.895238v-124.342858h26.819047v121.904762c0 41.447619 17.066667 60.952381 53.638096 60.952381 34.133333 0 51.2-19.504762 51.2-58.514285v-124.342858h26.819047v121.904762zM7543.466667 977.67619v-134.095238c0-12.190476 0-24.380952 2.438095-39.009523-2.438095 9.752381-4.87619 17.066667-7.314286 19.504761l-68.266666 153.6h-14.628572l-68.266667-153.6c-2.438095-2.438095-4.87619-9.752381-7.314285-21.942857 0 9.752381 2.438095 24.380952 2.438095 41.447619v134.095238h-26.819048v-204.8h36.571429l60.952381 138.971429c4.87619 9.752381 7.314286 19.504762 9.752381 24.380952 4.87619-12.190476 7.314286-21.942857 9.752381-24.380952l63.390476-138.971429h34.133333v204.8h-26.819047zM7738.514286 977.67619h-112.152381v-204.8h107.27619v24.380953h-80.457143v65.828571h75.580953v24.380953h-75.580953v68.266666h85.333334v21.942857zM7950.628571 977.67619h-31.695238l-104.838095-158.47619c-2.438095-4.87619-4.87619-9.752381-7.314286-12.190476V980.114286H7777.52381v-204.8h34.133333l102.4 156.038095c4.87619 7.314286 7.314286 12.190476 9.752381 14.628571 0-4.87619-2.438095-14.628571-2.438095-29.257142v-138.971429h26.819047v199.923809zM8131.047619 797.257143H8070.095238v180.419047h-26.819048v-180.419047h-60.95238v-24.380953h148.723809v24.380953zM8387.047619 967.92381c-14.628571 7.314286-34.133333 12.190476-58.514286 12.190476-29.257143 0-53.638095-9.752381-73.142857-26.819048-17.066667-19.504762-26.819048-43.885714-26.819047-73.142857 0-31.695238 9.752381-58.514286 29.257142-78.019048 19.504762-19.504762 46.32381-29.257143 78.019048-29.257143 19.504762 0 36.571429 2.438095 48.761905 7.314286v24.380953c-14.628571-7.314286-31.695238-12.190476-48.761905-12.190477-24.380952 0-41.447619 7.314286-56.07619 21.942858-14.628571 14.628571-21.942857 36.571429-21.942858 60.95238s7.314286 43.885714 19.504762 58.514286c14.628571 14.628571 31.695238 21.942857 53.638096 21.942857 21.942857 0 39.009524-4.87619 53.638095-14.628571v26.819048zM8413.866667 877.714286c0-31.695238 9.752381-58.514286 26.819047-78.019048 19.504762-19.504762 43.885714-29.257143 75.580953-29.257143 29.257143 0 53.638095 9.752381 70.704762 29.257143 17.066667 19.504762 26.819048 43.885714 26.819047 73.142857 0 34.133333-9.752381 58.514286-26.819047 78.019048-17.066667 19.504762-41.447619 29.257143-73.142858 29.257143-29.257143 0-53.638095-9.752381-70.704761-29.257143-21.942857-17.066667-29.257143-43.885714-29.257143-73.142857z m26.819047-2.438096c0 24.380952 7.314286 43.885714 19.504762 58.514286s29.257143 21.942857 51.2 21.942857c21.942857 0 39.009524-7.314286 53.638095-21.942857 12.190476-14.628571 19.504762-34.133333 19.504762-60.952381s-7.314286-46.32381-19.504762-60.952381c-12.190476-14.628571-29.257143-21.942857-51.2-21.942857-21.942857 0-39.009524 7.314286-51.2 21.942857-14.628571 19.504762-21.942857 39.009524-21.942857 63.390476zM8628.419048 963.047619c0-4.87619 2.438095-9.752381 4.87619-12.190476s7.314286-4.87619 12.190476-4.876191 9.752381 2.438095 12.190476 4.876191 4.87619 7.314286 4.876191 12.190476-2.438095 7.314286-4.876191 12.190476-7.314286 4.87619-12.190476 4.876191-9.752381-2.438095-12.190476-4.876191c-4.87619-2.438095-4.87619-7.314286-4.87619-12.190476zM8725.942857 943.542857l-24.380952 70.704762h-19.504762l17.066667-70.704762h26.819047zM8881.980952 977.67619h-109.714285v-204.8h26.819047v180.419048h82.895238v24.380952zM9025.828571 797.257143h-60.952381v180.419047h-26.819047v-180.419047h-60.952381v-24.380953h148.723809v24.380953zM9057.52381 977.67619v-204.8h60.95238c31.695238 0 58.514286 9.752381 80.457143 26.819048 21.942857 17.066667 31.695238 41.447619 31.695238 73.142857s-9.752381 56.07619-31.695238 75.580953c-21.942857 19.504762-48.761905 29.257143-80.457143 29.257142h-60.95238z m26.819047-180.419047v156.038095h29.257143c26.819048 0 46.32381-7.314286 63.390476-21.942857 14.628571-14.628571 21.942857-34.133333 21.942857-58.514286s-7.314286-43.885714-21.942857-58.514285c-14.628571-12.190476-36.571429-19.504762-60.952381-19.504762h-31.695238zM9237.942857 963.047619c0-4.87619 2.438095-9.752381 4.876191-12.190476 2.438095-2.438095 7.314286-4.87619 12.190476-4.876191s9.752381 2.438095 12.190476 4.876191c2.438095 2.438095 4.87619 7.314286 4.87619 12.190476s-2.438095 7.314286-4.87619 12.190476c-2.438095 2.438095-7.314286 4.87619-12.190476 4.876191s-9.752381-2.438095-12.190476-4.876191-4.87619-7.314286-4.876191-12.190476z" p-id="846" fill="#ffffff"></path></svg>